<mxfile host="app.diagrams.net" agent="Mozilla/5.0 (X11; Linux x86_64) AppleWebKit/537.36 (KHTML, like Gecko) Chrome/130.0.0.0 Safari/537.36" version="24.8.4">
  <diagram name="Page-1" id="nvzxtqBZD-Xa4mkcldbX">
    <mxGraphModel dx="237" dy="457" grid="1" gridSize="10" guides="1" tooltips="1" connect="1" arrows="1" fold="1" page="1" pageScale="1" pageWidth="850" pageHeight="1100" math="0" shadow="0">
      <root>
        <mxCell id="0" />
        <mxCell id="1" parent="0" />
        <mxCell id="EUt-hNtFgl6KFNe2TUa1-20" value="" style="group" vertex="1" connectable="0" parent="1">
          <mxGeometry x="266" y="440" width="318" height="120" as="geometry" />
        </mxCell>
        <mxCell id="EUt-hNtFgl6KFNe2TUa1-81" style="edgeStyle=orthogonalEdgeStyle;rounded=0;orthogonalLoop=1;jettySize=auto;html=1;exitX=0;exitY=0.75;exitDx=0;exitDy=0;exitPerimeter=0;endArrow=none;endFill=0;" edge="1" parent="EUt-hNtFgl6KFNe2TUa1-20" source="EUt-hNtFgl6KFNe2TUa1-21">
          <mxGeometry relative="1" as="geometry">
            <mxPoint x="-46" y="-240" as="targetPoint" />
          </mxGeometry>
        </mxCell>
        <mxCell id="EUt-hNtFgl6KFNe2TUa1-93" style="edgeStyle=orthogonalEdgeStyle;rounded=0;orthogonalLoop=1;jettySize=auto;html=1;exitX=0;exitY=0.25;exitDx=0;exitDy=0;exitPerimeter=0;endArrow=none;endFill=0;" edge="1" parent="EUt-hNtFgl6KFNe2TUa1-20" source="EUt-hNtFgl6KFNe2TUa1-21">
          <mxGeometry relative="1" as="geometry">
            <mxPoint x="-76" as="targetPoint" />
            <Array as="points">
              <mxPoint x="-76" y="15" />
            </Array>
          </mxGeometry>
        </mxCell>
        <mxCell id="EUt-hNtFgl6KFNe2TUa1-21" value="" style="verticalLabelPosition=bottom;shadow=0;dashed=0;align=center;html=1;verticalAlign=top;shape=mxgraph.electrical.logic_gates.logic_gate;operation=or;" vertex="1" parent="EUt-hNtFgl6KFNe2TUa1-20">
          <mxGeometry width="100" height="60" as="geometry" />
        </mxCell>
        <mxCell id="EUt-hNtFgl6KFNe2TUa1-79" style="edgeStyle=orthogonalEdgeStyle;rounded=0;orthogonalLoop=1;jettySize=auto;html=1;exitX=0;exitY=0.25;exitDx=0;exitDy=0;exitPerimeter=0;endArrow=none;endFill=0;" edge="1" parent="EUt-hNtFgl6KFNe2TUa1-20" source="EUt-hNtFgl6KFNe2TUa1-22">
          <mxGeometry relative="1" as="geometry">
            <mxPoint x="-36" y="-70" as="targetPoint" />
          </mxGeometry>
        </mxCell>
        <mxCell id="EUt-hNtFgl6KFNe2TUa1-84" style="edgeStyle=orthogonalEdgeStyle;rounded=0;orthogonalLoop=1;jettySize=auto;html=1;exitX=0;exitY=0.75;exitDx=0;exitDy=0;exitPerimeter=0;endArrow=none;endFill=0;" edge="1" parent="EUt-hNtFgl6KFNe2TUa1-20" source="EUt-hNtFgl6KFNe2TUa1-22">
          <mxGeometry relative="1" as="geometry">
            <mxPoint x="-26" y="105" as="targetPoint" />
          </mxGeometry>
        </mxCell>
        <mxCell id="EUt-hNtFgl6KFNe2TUa1-22" value="" style="verticalLabelPosition=bottom;shadow=0;dashed=0;align=center;html=1;verticalAlign=top;shape=mxgraph.electrical.logic_gates.logic_gate;operation=or;" vertex="1" parent="EUt-hNtFgl6KFNe2TUa1-20">
          <mxGeometry y="60" width="100" height="60" as="geometry" />
        </mxCell>
        <mxCell id="EUt-hNtFgl6KFNe2TUa1-23" value="" style="verticalLabelPosition=bottom;shadow=0;dashed=0;align=center;html=1;verticalAlign=top;shape=mxgraph.electrical.logic_gates.logic_gate;operation=or;" vertex="1" parent="EUt-hNtFgl6KFNe2TUa1-20">
          <mxGeometry x="120" y="30" width="100" height="60" as="geometry" />
        </mxCell>
        <mxCell id="EUt-hNtFgl6KFNe2TUa1-73" style="edgeStyle=orthogonalEdgeStyle;rounded=0;orthogonalLoop=1;jettySize=auto;html=1;exitX=0;exitY=0.75;exitDx=0;exitDy=0;exitPerimeter=0;endArrow=none;endFill=0;" edge="1" parent="EUt-hNtFgl6KFNe2TUa1-20" source="EUt-hNtFgl6KFNe2TUa1-24">
          <mxGeometry relative="1" as="geometry">
            <mxPoint x="214" y="90.33333333333326" as="targetPoint" />
          </mxGeometry>
        </mxCell>
        <mxCell id="EUt-hNtFgl6KFNe2TUa1-24" value="" style="verticalLabelPosition=bottom;shadow=0;dashed=0;align=center;html=1;verticalAlign=top;shape=mxgraph.electrical.logic_gates.logic_gate;operation=xor;" vertex="1" parent="EUt-hNtFgl6KFNe2TUa1-20">
          <mxGeometry x="232" y="45" width="100" height="60" as="geometry" />
        </mxCell>
        <mxCell id="EUt-hNtFgl6KFNe2TUa1-25" value="" style="endArrow=none;html=1;rounded=0;entryX=1;entryY=0.5;entryDx=0;entryDy=0;entryPerimeter=0;exitX=0;exitY=0.25;exitDx=0;exitDy=0;exitPerimeter=0;" edge="1" parent="EUt-hNtFgl6KFNe2TUa1-20" source="EUt-hNtFgl6KFNe2TUa1-23" target="EUt-hNtFgl6KFNe2TUa1-21">
          <mxGeometry width="50" height="50" relative="1" as="geometry">
            <mxPoint x="130" y="300" as="sourcePoint" />
            <mxPoint x="180" y="250" as="targetPoint" />
            <Array as="points">
              <mxPoint x="100" y="45" />
            </Array>
          </mxGeometry>
        </mxCell>
        <mxCell id="EUt-hNtFgl6KFNe2TUa1-26" value="" style="endArrow=none;html=1;rounded=0;entryX=0;entryY=0.75;entryDx=0;entryDy=0;entryPerimeter=0;exitX=1;exitY=0.5;exitDx=0;exitDy=0;exitPerimeter=0;" edge="1" parent="EUt-hNtFgl6KFNe2TUa1-20" source="EUt-hNtFgl6KFNe2TUa1-22" target="EUt-hNtFgl6KFNe2TUa1-23">
          <mxGeometry width="50" height="50" relative="1" as="geometry">
            <mxPoint x="130" y="230" as="sourcePoint" />
            <mxPoint x="180" y="180" as="targetPoint" />
            <Array as="points">
              <mxPoint x="100" y="75" />
            </Array>
          </mxGeometry>
        </mxCell>
        <mxCell id="EUt-hNtFgl6KFNe2TUa1-54" style="edgeStyle=orthogonalEdgeStyle;rounded=0;orthogonalLoop=1;jettySize=auto;html=1;exitX=0;exitY=0.25;exitDx=0;exitDy=0;exitPerimeter=0;entryX=1;entryY=0.5;entryDx=0;entryDy=0;entryPerimeter=0;endArrow=none;endFill=0;" edge="1" parent="EUt-hNtFgl6KFNe2TUa1-20" source="EUt-hNtFgl6KFNe2TUa1-24" target="EUt-hNtFgl6KFNe2TUa1-23">
          <mxGeometry relative="1" as="geometry" />
        </mxCell>
        <mxCell id="EUt-hNtFgl6KFNe2TUa1-27" value="" style="pointerEvents=1;verticalLabelPosition=bottom;shadow=0;dashed=0;align=center;html=1;verticalAlign=top;shape=mxgraph.electrical.waveforms.square_wave;" vertex="1" parent="1">
          <mxGeometry x="266" y="630" width="90" height="40" as="geometry" />
        </mxCell>
        <mxCell id="EUt-hNtFgl6KFNe2TUa1-28" value="" style="pointerEvents=1;verticalLabelPosition=bottom;shadow=0;dashed=0;align=center;html=1;verticalAlign=top;shape=mxgraph.electrical.waveforms.square_wave;" vertex="1" parent="1">
          <mxGeometry x="356" y="630" width="90" height="40" as="geometry" />
        </mxCell>
        <mxCell id="EUt-hNtFgl6KFNe2TUa1-29" value="" style="pointerEvents=1;verticalLabelPosition=bottom;shadow=0;dashed=0;align=center;html=1;verticalAlign=top;shape=mxgraph.electrical.waveforms.square_wave;" vertex="1" parent="1">
          <mxGeometry x="446" y="630" width="90" height="40" as="geometry" />
        </mxCell>
        <mxCell id="EUt-hNtFgl6KFNe2TUa1-30" value="" style="pointerEvents=1;verticalLabelPosition=bottom;shadow=0;dashed=0;align=center;html=1;verticalAlign=top;shape=mxgraph.electrical.waveforms.square_wave;" vertex="1" parent="1">
          <mxGeometry x="536" y="630" width="90" height="40" as="geometry" />
        </mxCell>
        <mxCell id="EUt-hNtFgl6KFNe2TUa1-31" value="IN 0" style="text;html=1;align=center;verticalAlign=middle;whiteSpace=wrap;rounded=0;" vertex="1" parent="1">
          <mxGeometry x="100" y="120" width="60" height="30" as="geometry" />
        </mxCell>
        <mxCell id="EUt-hNtFgl6KFNe2TUa1-94" style="edgeStyle=orthogonalEdgeStyle;rounded=0;orthogonalLoop=1;jettySize=auto;html=1;exitX=1;exitY=0.5;exitDx=0;exitDy=0;endArrow=none;endFill=0;" edge="1" parent="1">
          <mxGeometry relative="1" as="geometry">
            <mxPoint x="220" y="350" as="targetPoint" />
            <mxPoint x="160" y="295" as="sourcePoint" />
            <Array as="points">
              <mxPoint x="180" y="295" />
              <mxPoint x="180" y="340" />
              <mxPoint x="220" y="340" />
            </Array>
          </mxGeometry>
        </mxCell>
        <mxCell id="EUt-hNtFgl6KFNe2TUa1-38" value="IN 4" style="text;html=1;align=center;verticalAlign=middle;whiteSpace=wrap;rounded=0;" vertex="1" parent="1">
          <mxGeometry x="100" y="280" width="60" height="30" as="geometry" />
        </mxCell>
        <mxCell id="EUt-hNtFgl6KFNe2TUa1-95" style="edgeStyle=orthogonalEdgeStyle;rounded=0;orthogonalLoop=1;jettySize=auto;html=1;exitX=1;exitY=0.5;exitDx=0;exitDy=0;endArrow=none;endFill=0;" edge="1" parent="1" source="EUt-hNtFgl6KFNe2TUa1-39">
          <mxGeometry relative="1" as="geometry">
            <mxPoint x="230" y="370" as="targetPoint" />
            <Array as="points">
              <mxPoint x="170" y="335" />
              <mxPoint x="170" y="360" />
              <mxPoint x="230" y="360" />
            </Array>
          </mxGeometry>
        </mxCell>
        <mxCell id="EUt-hNtFgl6KFNe2TUa1-39" value="IN 5" style="text;html=1;align=center;verticalAlign=middle;whiteSpace=wrap;rounded=0;" vertex="1" parent="1">
          <mxGeometry x="100" y="320" width="60" height="30" as="geometry" />
        </mxCell>
        <mxCell id="EUt-hNtFgl6KFNe2TUa1-96" style="edgeStyle=orthogonalEdgeStyle;rounded=0;orthogonalLoop=1;jettySize=auto;html=1;exitX=1;exitY=0.5;exitDx=0;exitDy=0;endArrow=none;endFill=0;" edge="1" parent="1" source="EUt-hNtFgl6KFNe2TUa1-40">
          <mxGeometry relative="1" as="geometry">
            <mxPoint x="240" y="540" as="targetPoint" />
            <Array as="points">
              <mxPoint x="180" y="375" />
              <mxPoint x="180" y="540" />
              <mxPoint x="240" y="540" />
            </Array>
          </mxGeometry>
        </mxCell>
        <mxCell id="EUt-hNtFgl6KFNe2TUa1-40" value="IN 6" style="text;html=1;align=center;verticalAlign=middle;whiteSpace=wrap;rounded=0;" vertex="1" parent="1">
          <mxGeometry x="100" y="360" width="60" height="30" as="geometry" />
        </mxCell>
        <mxCell id="EUt-hNtFgl6KFNe2TUa1-41" value="IN 1" style="text;html=1;align=center;verticalAlign=middle;whiteSpace=wrap;rounded=0;" vertex="1" parent="1">
          <mxGeometry x="100" y="160" width="60" height="30" as="geometry" />
        </mxCell>
        <mxCell id="EUt-hNtFgl6KFNe2TUa1-42" value="IN 2" style="text;html=1;align=center;verticalAlign=middle;whiteSpace=wrap;rounded=0;" vertex="1" parent="1">
          <mxGeometry x="100" y="200" width="60" height="30" as="geometry" />
        </mxCell>
        <mxCell id="EUt-hNtFgl6KFNe2TUa1-92" style="edgeStyle=orthogonalEdgeStyle;rounded=0;orthogonalLoop=1;jettySize=auto;html=1;exitX=1;exitY=0.5;exitDx=0;exitDy=0;endArrow=none;endFill=0;" edge="1" parent="1" source="EUt-hNtFgl6KFNe2TUa1-43">
          <mxGeometry relative="1" as="geometry">
            <mxPoint x="190" y="450" as="targetPoint" />
          </mxGeometry>
        </mxCell>
        <mxCell id="EUt-hNtFgl6KFNe2TUa1-43" value="IN 3" style="text;html=1;align=center;verticalAlign=middle;whiteSpace=wrap;rounded=0;" vertex="1" parent="1">
          <mxGeometry x="100" y="240" width="60" height="30" as="geometry" />
        </mxCell>
        <mxCell id="EUt-hNtFgl6KFNe2TUa1-44" value="CLK" style="text;html=1;align=center;verticalAlign=middle;whiteSpace=wrap;rounded=0;" vertex="1" parent="1">
          <mxGeometry x="100" y="635" width="60" height="30" as="geometry" />
        </mxCell>
        <mxCell id="EUt-hNtFgl6KFNe2TUa1-50" style="edgeStyle=orthogonalEdgeStyle;rounded=0;orthogonalLoop=1;jettySize=auto;html=1;endArrow=none;endFill=0;exitX=1;exitY=0.5;exitDx=0;exitDy=0;" edge="1" parent="1" source="EUt-hNtFgl6KFNe2TUa1-45">
          <mxGeometry relative="1" as="geometry">
            <mxPoint x="480" y="240" as="targetPoint" />
            <mxPoint x="148" y="595" as="sourcePoint" />
          </mxGeometry>
        </mxCell>
        <mxCell id="EUt-hNtFgl6KFNe2TUa1-45" value="INV-OUT" style="text;html=1;align=center;verticalAlign=middle;whiteSpace=wrap;rounded=0;" vertex="1" parent="1">
          <mxGeometry x="100" y="580" width="60" height="30" as="geometry" />
        </mxCell>
        <mxCell id="EUt-hNtFgl6KFNe2TUa1-55" value="" style="group" vertex="1" connectable="0" parent="1">
          <mxGeometry x="266" y="280" width="318" height="120" as="geometry" />
        </mxCell>
        <mxCell id="EUt-hNtFgl6KFNe2TUa1-85" style="edgeStyle=orthogonalEdgeStyle;rounded=0;orthogonalLoop=1;jettySize=auto;html=1;exitX=0;exitY=0.75;exitDx=0;exitDy=0;exitPerimeter=0;endArrow=none;endFill=0;" edge="1" parent="EUt-hNtFgl6KFNe2TUa1-55" source="EUt-hNtFgl6KFNe2TUa1-56">
          <mxGeometry relative="1" as="geometry">
            <mxPoint x="-56" y="-110" as="targetPoint" />
          </mxGeometry>
        </mxCell>
        <mxCell id="EUt-hNtFgl6KFNe2TUa1-56" value="" style="verticalLabelPosition=bottom;shadow=0;dashed=0;align=center;html=1;verticalAlign=top;shape=mxgraph.electrical.logic_gates.logic_gate;operation=or;" vertex="1" parent="EUt-hNtFgl6KFNe2TUa1-55">
          <mxGeometry width="100" height="60" as="geometry" />
        </mxCell>
        <mxCell id="EUt-hNtFgl6KFNe2TUa1-80" style="edgeStyle=orthogonalEdgeStyle;rounded=0;orthogonalLoop=1;jettySize=auto;html=1;exitX=0;exitY=0.25;exitDx=0;exitDy=0;exitPerimeter=0;endArrow=none;endFill=0;" edge="1" parent="EUt-hNtFgl6KFNe2TUa1-55" source="EUt-hNtFgl6KFNe2TUa1-57">
          <mxGeometry relative="1" as="geometry">
            <mxPoint x="-36" y="90" as="targetPoint" />
          </mxGeometry>
        </mxCell>
        <mxCell id="EUt-hNtFgl6KFNe2TUa1-83" style="edgeStyle=orthogonalEdgeStyle;rounded=0;orthogonalLoop=1;jettySize=auto;html=1;exitX=0;exitY=0.75;exitDx=0;exitDy=0;exitPerimeter=0;endArrow=none;endFill=0;" edge="1" parent="EUt-hNtFgl6KFNe2TUa1-55" source="EUt-hNtFgl6KFNe2TUa1-57">
          <mxGeometry relative="1" as="geometry">
            <mxPoint x="-26" y="105" as="targetPoint" />
          </mxGeometry>
        </mxCell>
        <mxCell id="EUt-hNtFgl6KFNe2TUa1-57" value="" style="verticalLabelPosition=bottom;shadow=0;dashed=0;align=center;html=1;verticalAlign=top;shape=mxgraph.electrical.logic_gates.logic_gate;operation=or;" vertex="1" parent="EUt-hNtFgl6KFNe2TUa1-55">
          <mxGeometry y="60" width="100" height="60" as="geometry" />
        </mxCell>
        <mxCell id="EUt-hNtFgl6KFNe2TUa1-58" value="" style="verticalLabelPosition=bottom;shadow=0;dashed=0;align=center;html=1;verticalAlign=top;shape=mxgraph.electrical.logic_gates.logic_gate;operation=or;" vertex="1" parent="EUt-hNtFgl6KFNe2TUa1-55">
          <mxGeometry x="120" y="30" width="100" height="60" as="geometry" />
        </mxCell>
        <mxCell id="EUt-hNtFgl6KFNe2TUa1-72" style="edgeStyle=orthogonalEdgeStyle;rounded=0;orthogonalLoop=1;jettySize=auto;html=1;exitX=0;exitY=0.75;exitDx=0;exitDy=0;exitPerimeter=0;endArrow=none;endFill=0;" edge="1" parent="EUt-hNtFgl6KFNe2TUa1-55" source="EUt-hNtFgl6KFNe2TUa1-59">
          <mxGeometry relative="1" as="geometry">
            <mxPoint x="214" y="90.33333333333337" as="targetPoint" />
          </mxGeometry>
        </mxCell>
        <mxCell id="EUt-hNtFgl6KFNe2TUa1-59" value="" style="verticalLabelPosition=bottom;shadow=0;dashed=0;align=center;html=1;verticalAlign=top;shape=mxgraph.electrical.logic_gates.logic_gate;operation=xor;" vertex="1" parent="EUt-hNtFgl6KFNe2TUa1-55">
          <mxGeometry x="232" y="45" width="100" height="60" as="geometry" />
        </mxCell>
        <mxCell id="EUt-hNtFgl6KFNe2TUa1-60" value="" style="endArrow=none;html=1;rounded=0;entryX=1;entryY=0.5;entryDx=0;entryDy=0;entryPerimeter=0;exitX=0;exitY=0.25;exitDx=0;exitDy=0;exitPerimeter=0;" edge="1" parent="EUt-hNtFgl6KFNe2TUa1-55" source="EUt-hNtFgl6KFNe2TUa1-58" target="EUt-hNtFgl6KFNe2TUa1-56">
          <mxGeometry width="50" height="50" relative="1" as="geometry">
            <mxPoint x="130" y="300" as="sourcePoint" />
            <mxPoint x="180" y="250" as="targetPoint" />
            <Array as="points">
              <mxPoint x="100" y="45" />
            </Array>
          </mxGeometry>
        </mxCell>
        <mxCell id="EUt-hNtFgl6KFNe2TUa1-61" value="" style="endArrow=none;html=1;rounded=0;entryX=0;entryY=0.75;entryDx=0;entryDy=0;entryPerimeter=0;exitX=1;exitY=0.5;exitDx=0;exitDy=0;exitPerimeter=0;" edge="1" parent="EUt-hNtFgl6KFNe2TUa1-55" source="EUt-hNtFgl6KFNe2TUa1-57" target="EUt-hNtFgl6KFNe2TUa1-58">
          <mxGeometry width="50" height="50" relative="1" as="geometry">
            <mxPoint x="130" y="230" as="sourcePoint" />
            <mxPoint x="180" y="180" as="targetPoint" />
            <Array as="points">
              <mxPoint x="100" y="75" />
            </Array>
          </mxGeometry>
        </mxCell>
        <mxCell id="EUt-hNtFgl6KFNe2TUa1-62" style="edgeStyle=orthogonalEdgeStyle;rounded=0;orthogonalLoop=1;jettySize=auto;html=1;exitX=0;exitY=0.25;exitDx=0;exitDy=0;exitPerimeter=0;entryX=1;entryY=0.5;entryDx=0;entryDy=0;entryPerimeter=0;endArrow=none;endFill=0;" edge="1" parent="EUt-hNtFgl6KFNe2TUa1-55" source="EUt-hNtFgl6KFNe2TUa1-59" target="EUt-hNtFgl6KFNe2TUa1-58">
          <mxGeometry relative="1" as="geometry" />
        </mxCell>
        <mxCell id="EUt-hNtFgl6KFNe2TUa1-91" style="edgeStyle=orthogonalEdgeStyle;rounded=0;orthogonalLoop=1;jettySize=auto;html=1;exitX=1;exitY=0.5;exitDx=0;exitDy=0;endArrow=none;endFill=0;" edge="1" parent="EUt-hNtFgl6KFNe2TUa1-55" source="EUt-hNtFgl6KFNe2TUa1-42">
          <mxGeometry relative="1" as="geometry">
            <mxPoint x="-56" y="-110" as="targetPoint" />
            <mxPoint x="-86" y="-65" as="sourcePoint" />
          </mxGeometry>
        </mxCell>
        <mxCell id="EUt-hNtFgl6KFNe2TUa1-63" value="" style="group" vertex="1" connectable="0" parent="1">
          <mxGeometry x="266" y="120" width="318" height="120" as="geometry" />
        </mxCell>
        <mxCell id="EUt-hNtFgl6KFNe2TUa1-86" style="edgeStyle=orthogonalEdgeStyle;rounded=0;orthogonalLoop=1;jettySize=auto;html=1;exitX=0;exitY=0.75;exitDx=0;exitDy=0;exitPerimeter=0;endArrow=none;endFill=0;" edge="1" parent="EUt-hNtFgl6KFNe2TUa1-63" source="EUt-hNtFgl6KFNe2TUa1-64">
          <mxGeometry relative="1" as="geometry">
            <mxPoint x="-56" y="60" as="targetPoint" />
            <Array as="points">
              <mxPoint x="-56" y="45" />
            </Array>
          </mxGeometry>
        </mxCell>
        <mxCell id="EUt-hNtFgl6KFNe2TUa1-64" value="" style="verticalLabelPosition=bottom;shadow=0;dashed=0;align=center;html=1;verticalAlign=top;shape=mxgraph.electrical.logic_gates.logic_gate;operation=or;" vertex="1" parent="EUt-hNtFgl6KFNe2TUa1-63">
          <mxGeometry width="100" height="60" as="geometry" />
        </mxCell>
        <mxCell id="EUt-hNtFgl6KFNe2TUa1-78" style="edgeStyle=orthogonalEdgeStyle;rounded=0;orthogonalLoop=1;jettySize=auto;html=1;exitX=0;exitY=0.75;exitDx=0;exitDy=0;exitPerimeter=0;endArrow=none;endFill=0;" edge="1" parent="EUt-hNtFgl6KFNe2TUa1-63" source="EUt-hNtFgl6KFNe2TUa1-65">
          <mxGeometry relative="1" as="geometry">
            <mxPoint x="-16" y="105" as="targetPoint" />
          </mxGeometry>
        </mxCell>
        <mxCell id="EUt-hNtFgl6KFNe2TUa1-82" style="edgeStyle=orthogonalEdgeStyle;rounded=0;orthogonalLoop=1;jettySize=auto;html=1;exitX=0;exitY=0.25;exitDx=0;exitDy=0;exitPerimeter=0;endArrow=none;endFill=0;" edge="1" parent="EUt-hNtFgl6KFNe2TUa1-63" source="EUt-hNtFgl6KFNe2TUa1-65">
          <mxGeometry relative="1" as="geometry">
            <mxPoint x="-46" y="90" as="targetPoint" />
            <Array as="points">
              <mxPoint x="-46" y="75" />
            </Array>
          </mxGeometry>
        </mxCell>
        <mxCell id="EUt-hNtFgl6KFNe2TUa1-65" value="" style="verticalLabelPosition=bottom;shadow=0;dashed=0;align=center;html=1;verticalAlign=top;shape=mxgraph.electrical.logic_gates.logic_gate;operation=or;" vertex="1" parent="EUt-hNtFgl6KFNe2TUa1-63">
          <mxGeometry y="60" width="100" height="60" as="geometry" />
        </mxCell>
        <mxCell id="EUt-hNtFgl6KFNe2TUa1-66" value="" style="verticalLabelPosition=bottom;shadow=0;dashed=0;align=center;html=1;verticalAlign=top;shape=mxgraph.electrical.logic_gates.logic_gate;operation=or;" vertex="1" parent="EUt-hNtFgl6KFNe2TUa1-63">
          <mxGeometry x="120" y="30" width="100" height="60" as="geometry" />
        </mxCell>
        <mxCell id="EUt-hNtFgl6KFNe2TUa1-71" style="edgeStyle=orthogonalEdgeStyle;rounded=0;orthogonalLoop=1;jettySize=auto;html=1;exitX=0;exitY=0.75;exitDx=0;exitDy=0;exitPerimeter=0;endArrow=none;endFill=0;" edge="1" parent="EUt-hNtFgl6KFNe2TUa1-63" source="EUt-hNtFgl6KFNe2TUa1-67">
          <mxGeometry relative="1" as="geometry">
            <mxPoint x="214" y="120" as="targetPoint" />
          </mxGeometry>
        </mxCell>
        <mxCell id="EUt-hNtFgl6KFNe2TUa1-67" value="" style="verticalLabelPosition=bottom;shadow=0;dashed=0;align=center;html=1;verticalAlign=top;shape=mxgraph.electrical.logic_gates.logic_gate;operation=xor;" vertex="1" parent="EUt-hNtFgl6KFNe2TUa1-63">
          <mxGeometry x="232" y="45" width="100" height="60" as="geometry" />
        </mxCell>
        <mxCell id="EUt-hNtFgl6KFNe2TUa1-68" value="" style="endArrow=none;html=1;rounded=0;entryX=1;entryY=0.5;entryDx=0;entryDy=0;entryPerimeter=0;exitX=0;exitY=0.25;exitDx=0;exitDy=0;exitPerimeter=0;" edge="1" parent="EUt-hNtFgl6KFNe2TUa1-63" source="EUt-hNtFgl6KFNe2TUa1-66" target="EUt-hNtFgl6KFNe2TUa1-64">
          <mxGeometry width="50" height="50" relative="1" as="geometry">
            <mxPoint x="130" y="300" as="sourcePoint" />
            <mxPoint x="180" y="250" as="targetPoint" />
            <Array as="points">
              <mxPoint x="100" y="45" />
            </Array>
          </mxGeometry>
        </mxCell>
        <mxCell id="EUt-hNtFgl6KFNe2TUa1-69" value="" style="endArrow=none;html=1;rounded=0;entryX=0;entryY=0.75;entryDx=0;entryDy=0;entryPerimeter=0;exitX=1;exitY=0.5;exitDx=0;exitDy=0;exitPerimeter=0;" edge="1" parent="EUt-hNtFgl6KFNe2TUa1-63" source="EUt-hNtFgl6KFNe2TUa1-65" target="EUt-hNtFgl6KFNe2TUa1-66">
          <mxGeometry width="50" height="50" relative="1" as="geometry">
            <mxPoint x="130" y="230" as="sourcePoint" />
            <mxPoint x="180" y="180" as="targetPoint" />
            <Array as="points">
              <mxPoint x="100" y="75" />
            </Array>
          </mxGeometry>
        </mxCell>
        <mxCell id="EUt-hNtFgl6KFNe2TUa1-70" style="edgeStyle=orthogonalEdgeStyle;rounded=0;orthogonalLoop=1;jettySize=auto;html=1;exitX=0;exitY=0.25;exitDx=0;exitDy=0;exitPerimeter=0;entryX=1;entryY=0.5;entryDx=0;entryDy=0;entryPerimeter=0;endArrow=none;endFill=0;" edge="1" parent="EUt-hNtFgl6KFNe2TUa1-63" source="EUt-hNtFgl6KFNe2TUa1-67" target="EUt-hNtFgl6KFNe2TUa1-66">
          <mxGeometry relative="1" as="geometry" />
        </mxCell>
        <mxCell id="EUt-hNtFgl6KFNe2TUa1-74" value="" style="endArrow=none;html=1;rounded=0;entryX=0;entryY=0.508;entryDx=0;entryDy=0;entryPerimeter=0;exitX=1;exitY=0.5;exitDx=0;exitDy=0;" edge="1" parent="1" source="EUt-hNtFgl6KFNe2TUa1-44" target="EUt-hNtFgl6KFNe2TUa1-27">
          <mxGeometry width="50" height="50" relative="1" as="geometry">
            <mxPoint x="160" y="647" as="sourcePoint" />
            <mxPoint x="260" y="650" as="targetPoint" />
          </mxGeometry>
        </mxCell>
        <mxCell id="EUt-hNtFgl6KFNe2TUa1-75" style="edgeStyle=orthogonalEdgeStyle;rounded=0;orthogonalLoop=1;jettySize=auto;html=1;exitX=0;exitY=0.75;exitDx=0;exitDy=0;exitPerimeter=0;entryX=0;entryY=0.75;entryDx=0;entryDy=0;entryPerimeter=0;endArrow=none;endFill=0;" edge="1" parent="1">
          <mxGeometry relative="1" as="geometry">
            <mxPoint x="240" y="385" as="sourcePoint" />
            <mxPoint x="240" y="545" as="targetPoint" />
          </mxGeometry>
        </mxCell>
        <mxCell id="EUt-hNtFgl6KFNe2TUa1-77" style="edgeStyle=orthogonalEdgeStyle;rounded=0;orthogonalLoop=1;jettySize=auto;html=1;exitX=0;exitY=0.75;exitDx=0;exitDy=0;exitPerimeter=0;entryX=0;entryY=0.75;entryDx=0;entryDy=0;entryPerimeter=0;endArrow=none;endFill=0;" edge="1" parent="1">
          <mxGeometry relative="1" as="geometry">
            <mxPoint x="260" y="225" as="sourcePoint" />
            <mxPoint x="240" y="385" as="targetPoint" />
          </mxGeometry>
        </mxCell>
        <mxCell id="EUt-hNtFgl6KFNe2TUa1-87" style="edgeStyle=orthogonalEdgeStyle;rounded=0;orthogonalLoop=1;jettySize=auto;html=1;exitX=0;exitY=0.25;exitDx=0;exitDy=0;exitPerimeter=0;endArrow=none;endFill=0;" edge="1" parent="1" source="EUt-hNtFgl6KFNe2TUa1-64" target="EUt-hNtFgl6KFNe2TUa1-31">
          <mxGeometry relative="1" as="geometry" />
        </mxCell>
        <mxCell id="EUt-hNtFgl6KFNe2TUa1-90" style="edgeStyle=orthogonalEdgeStyle;rounded=0;orthogonalLoop=1;jettySize=auto;html=1;exitX=1;exitY=0.5;exitDx=0;exitDy=0;entryX=0;entryY=0.25;entryDx=0;entryDy=0;entryPerimeter=0;endArrow=none;endFill=0;" edge="1" parent="1" source="EUt-hNtFgl6KFNe2TUa1-41" target="EUt-hNtFgl6KFNe2TUa1-56">
          <mxGeometry relative="1" as="geometry">
            <Array as="points">
              <mxPoint x="200" y="175" />
              <mxPoint x="200" y="295" />
            </Array>
          </mxGeometry>
        </mxCell>
        <mxCell id="EUt-hNtFgl6KFNe2TUa1-103" style="edgeStyle=orthogonalEdgeStyle;rounded=0;orthogonalLoop=1;jettySize=auto;html=1;exitX=0;exitY=0.5;exitDx=0;exitDy=0;endArrow=none;endFill=0;" edge="1" parent="1" source="EUt-hNtFgl6KFNe2TUa1-98">
          <mxGeometry relative="1" as="geometry">
            <mxPoint x="480" y="595" as="targetPoint" />
          </mxGeometry>
        </mxCell>
        <mxCell id="EUt-hNtFgl6KFNe2TUa1-98" value="INV-OUT" style="text;html=1;align=center;verticalAlign=middle;whiteSpace=wrap;rounded=0;" vertex="1" parent="1">
          <mxGeometry x="650" y="580" width="60" height="30" as="geometry" />
        </mxCell>
        <mxCell id="EUt-hNtFgl6KFNe2TUa1-99" value="OUT 1" style="text;html=1;align=center;verticalAlign=middle;whiteSpace=wrap;rounded=0;" vertex="1" parent="1">
          <mxGeometry x="650" y="360" width="60" height="30" as="geometry" />
        </mxCell>
        <mxCell id="EUt-hNtFgl6KFNe2TUa1-100" value="OUT 2" style="text;html=1;align=center;verticalAlign=middle;whiteSpace=wrap;rounded=0;" vertex="1" parent="1">
          <mxGeometry x="650" y="440" width="60" height="30" as="geometry" />
        </mxCell>
        <mxCell id="EUt-hNtFgl6KFNe2TUa1-101" value="OUT 0" style="text;html=1;align=center;verticalAlign=middle;whiteSpace=wrap;rounded=0;" vertex="1" parent="1">
          <mxGeometry x="650" y="280" width="60" height="30" as="geometry" />
        </mxCell>
        <mxCell id="EUt-hNtFgl6KFNe2TUa1-102" value="CLK" style="text;html=1;align=center;verticalAlign=middle;whiteSpace=wrap;rounded=0;" vertex="1" parent="1">
          <mxGeometry x="650" y="635" width="60" height="30" as="geometry" />
        </mxCell>
        <mxCell id="EUt-hNtFgl6KFNe2TUa1-104" style="edgeStyle=orthogonalEdgeStyle;rounded=0;orthogonalLoop=1;jettySize=auto;html=1;exitX=1;exitY=0.5;exitDx=0;exitDy=0;exitPerimeter=0;entryX=0;entryY=0.5;entryDx=0;entryDy=0;endArrow=none;endFill=0;" edge="1" parent="1" source="EUt-hNtFgl6KFNe2TUa1-24" target="EUt-hNtFgl6KFNe2TUa1-100">
          <mxGeometry relative="1" as="geometry" />
        </mxCell>
        <mxCell id="EUt-hNtFgl6KFNe2TUa1-105" style="edgeStyle=orthogonalEdgeStyle;rounded=0;orthogonalLoop=1;jettySize=auto;html=1;exitX=1;exitY=0.5;exitDx=0;exitDy=0;exitPerimeter=0;entryX=0;entryY=0.5;entryDx=0;entryDy=0;endArrow=none;endFill=0;" edge="1" parent="1" source="EUt-hNtFgl6KFNe2TUa1-59" target="EUt-hNtFgl6KFNe2TUa1-99">
          <mxGeometry relative="1" as="geometry" />
        </mxCell>
        <mxCell id="EUt-hNtFgl6KFNe2TUa1-106" style="edgeStyle=orthogonalEdgeStyle;rounded=0;orthogonalLoop=1;jettySize=auto;html=1;exitX=1;exitY=0.5;exitDx=0;exitDy=0;exitPerimeter=0;entryX=0;entryY=0.5;entryDx=0;entryDy=0;endArrow=none;endFill=0;" edge="1" parent="1" source="EUt-hNtFgl6KFNe2TUa1-67" target="EUt-hNtFgl6KFNe2TUa1-101">
          <mxGeometry relative="1" as="geometry" />
        </mxCell>
        <mxCell id="EUt-hNtFgl6KFNe2TUa1-107" style="edgeStyle=orthogonalEdgeStyle;rounded=0;orthogonalLoop=1;jettySize=auto;html=1;exitX=0;exitY=0.5;exitDx=0;exitDy=0;entryX=0.994;entryY=0.575;entryDx=0;entryDy=0;entryPerimeter=0;endArrow=none;endFill=0;" edge="1" parent="1" source="EUt-hNtFgl6KFNe2TUa1-102" target="EUt-hNtFgl6KFNe2TUa1-30">
          <mxGeometry relative="1" as="geometry" />
        </mxCell>
      </root>
    </mxGraphModel>
  </diagram>
</mxfile>
